<svg width="14" height="10" viewBox="0 0 14 10" fill="none" xmlns="http://www.w3.org/2000/svg">
<path d="M1.388 9H0.032V0.624H3.644C4.396 0.624 4.988 0.852 5.42 1.308C5.852 1.756 6.068 2.368 6.068 3.144C6.068 3.744 5.928 4.244 5.648 4.644C5.376 5.036 4.972 5.312 4.436 5.472L6.248 9H4.736L3.056 5.616H1.388V9ZM3.548 4.476C3.892 4.476 4.16 4.388 4.352 4.212C4.544 4.028 4.64 3.768 4.64 3.432V2.856C4.64 2.52 4.544 2.264 4.352 2.088C4.16 1.904 3.892 1.812 3.548 1.812H1.388V4.476H3.548ZM9.02694 0.624V5.784C9.02694 6.496 9.16294 7.032 9.43494 7.392C9.70694 7.752 10.1709 7.932 10.8269 7.932C11.4829 7.932 11.9469 7.752 12.2189 7.392C12.4909 7.032 12.6269 6.496 12.6269 5.784V0.624H13.9589V5.568C13.9589 6.184 13.9029 6.716 13.7909 7.164C13.6789 7.612 13.4989 7.984 13.2509 8.28C13.0029 8.568 12.6789 8.784 12.2789 8.928C11.8869 9.072 11.4029 9.144 10.8269 9.144C10.2509 9.144 9.76294 9.072 9.36294 8.928C8.97094 8.784 8.65094 8.568 8.40294 8.28C8.15494 7.984 7.97494 7.612 7.86294 7.164C7.75094 6.716 7.69494 6.184 7.69494 5.568V0.624H9.02694Z" fill="white"/>
</svg>
